<svg xmlns="http://www.w3.org/2000/svg" xmlns:xlink="http://www.w3.org/1999/xlink" width="202.667" height="69.835" viewBox="0 0 202.667 69.835"><defs><clipPath id="a"><path d="M206.932,69.942l-2.306,3.685,2.306,3.683h4.607l2.3-3.683-2.3-3.685Z" transform="translate(-204.627 -69.942)" fill="#d60812"></path></clipPath></defs><g transform="translate(-53.956 -42.034)"><g transform="translate(133.261 56.724)"><path d="M206.932,69.942l-2.306,3.685,2.306,3.683h4.607l2.3-3.683-2.3-3.685Z" transform="translate(-204.627 -69.942)" fill="#d60812"></path><g clip-path="url(#a)"><rect width="8.422" height="7.369" transform="translate(0.196)" fill="#d60812"></rect></g></g><path d="M322.766,88.8a9.059,9.059,0,0,0-3.156-2.122,10.555,10.555,0,0,0-4.049-.759,9.4,9.4,0,0,0-4.766,1.132,7.937,7.937,0,0,0-3.157,3.631,17.473,17.473,0,0,0-1.665-2.2,8.67,8.67,0,0,0-1.758-1.5,6.375,6.375,0,0,0-2.086-.825,13.042,13.042,0,0,0-2.65-.245,9.628,9.628,0,0,0-4.769,1.1c-1.391.734-3.341,2.1-3.341,4.09v-3.6H284v28.949h7.369V98.442q0-5.805,4.711-5.808a7.426,7.426,0,0,1,2.145.272,3.067,3.067,0,0,1,1.462.938,3.979,3.979,0,0,1,.6,1.816,18.241,18.241,0,0,1,.031,2.964v17.834h8.422V98.746a7.169,7.169,0,0,1,1.267-4.541,4.179,4.179,0,0,1,3.479-1.813,3.625,3.625,0,0,1,3.15,1.7,6.432,6.432,0,0,1,1.053,3.93v18.441h7.369V95.86a9.951,9.951,0,0,0-.491-3.878,9.354,9.354,0,0,0-1.8-3.184" transform="translate(-108.961 -20.785)" fill="#fff"></path><path d="M392.061,90.532c-2.324-2.946-5.749-4.449-10.275-4.449a15.968,15.968,0,0,0-6.017,1.046,11.932,11.932,0,0,0-4.439,3.05,13.516,13.516,0,0,0-2.77,4.777,19.231,19.231,0,0,0-.953,6.232q0,16.218,14.653,16.214a13.45,13.45,0,0,0,8.1-2.6,11.453,11.453,0,0,0,4.765-7.208h-7.984a4.194,4.194,0,0,1-1.874,2.578,6.453,6.453,0,0,1-3.362.941,5.8,5.8,0,0,1-4.619-1.909,7.549,7.549,0,0,1-1.934-5.294H395.54c0-6.316-1.158-10.426-3.479-13.372M375.59,98.641c.158-1.053.807-3.57,1.935-4.719a5.411,5.411,0,0,1,4.023-1.681,6.328,6.328,0,0,1,2.2.42,5.39,5.39,0,0,1,1.906,1.219A5.723,5.723,0,0,1,387,95.853a8.052,8.052,0,0,1,.563,2.788Z" transform="translate(-148.562 -20.864)" fill="#fff"></path><path d="M426.053,108.892H425V69.942h7.369v32.732c0,6.829-6.445,6.084-6.445,6.084" transform="translate(-175.746 -13.219)" fill="#fff"></path><path d="M251.919,91.585a8.838,8.838,0,0,0-1.847-3.124,7.822,7.822,0,0,0-2.97-1.909,11.157,11.157,0,0,0-3.812-.638,11.375,11.375,0,0,0-5.8,1.313,10.544,10.544,0,0,0-3.6,3.878v-3.6H226v28.949h7.9V99.472c0-4.56,2.181-6.84,6.191-6.84a4.974,4.974,0,0,1,3.8,1.211c.752.807,1.059,2.36,1.059,4.659v17.955h7.369v-20.6a11.631,11.631,0,0,0-.4-4.273" transform="translate(-81.489 -20.784)" fill="#fff"></path><path d="M207,87.885V117.39h.384s6.985.615,6.985-6.225V88.441H207Z" transform="translate(-72.49 -21.717)" fill="#fff"></path><path d="M122.69,76.951c0,19.285-15.387,34.918-34.366,34.918S53.956,96.236,53.956,76.951,69.343,42.034,88.323,42.034,122.69,57.667,122.69,76.951ZM77.376,56.723H72.824l-1.138,1.683-1.138,1.825,1.138,1.931,1.138,1.93h4.551l1.138-2,1.138-1.986-1.138-1.691Zm24.49-7.7c-2.905-.334-5.86,1.2-8.186,4.517a19.648,19.648,0,0,0-2.567,6.444c-.825,3.247-3.47,17.317-4.019,21.091-.54,3.418-1.411,8.332-1.76,9.942-.79,3.655-1.886,8.252-5.163,10.57a5.492,5.492,0,0,1-2.792,1.235,8.131,8.131,0,0,1-5.729-1.9A25.1,25.1,0,0,1,64.31,89.328a49.551,49.551,0,0,1-1.757-7.537,43.714,43.714,0,0,1-.736-5.067H57.175c5.439,22.633,12.264,27.141,17.94,27.791,2.9.334,5.858-1.158,8.184-4.468,2.253-3.219,3.07-7.208,3.671-11.036.644-4.111,1.311-8.176,2.082-12.263q.768-4.068,1.491-8.146c.356-2,.675-4,1.1-5.993.791-3.655,1.889-8.248,5.163-10.567A5.5,5.5,0,0,1,99.6,50.807a8.161,8.161,0,0,1,5.731,1.9A25.182,25.182,0,0,1,112.673,64.3a49.455,49.455,0,0,1,1.756,7.448c.277,1.668.514,3.919.734,4.971H119.8C114.368,54.092,107.539,49.68,101.866,49.027Z" fill="#fff"></path></g></svg>